<?xml version="1.0" encoding="UTF-8"?> <svg xmlns="http://www.w3.org/2000/svg" width="175" height="91" viewBox="0 0 175 91" fill="none"> <path fill-rule="evenodd" clip-rule="evenodd" d="M50.3637 22.1362L55.7165 39.3888H45.011L50.3637 22.1362Z" fill="#FB5C18"></path> <path fill-rule="evenodd" clip-rule="evenodd" d="M15.1725 48.9143L30.3449 0H0L15.1725 48.9143Z" fill="#FB5C18"></path> <path fill-rule="evenodd" clip-rule="evenodd" d="M26.692 2.95403C26.3081 3.26131 25.5615 3.73247 25.397 4.11349C25.0469 4.29786 24.1864 5.26885 23.9249 5.56384C22.9969 6.61677 22.0183 7.38291 20.7276 8.03434L18.8337 9.02992C18.6607 9.24706 18.4245 9.40275 18.2178 9.59531C17.9985 9.79606 17.8044 10.0173 17.5978 10.2754C17.3911 10.5294 16.6276 11.5824 16.4378 11.693C16.2184 12.2666 15.1681 12.7377 14.4004 13.0368C13.4303 13.4137 12.8397 13.6186 12.1185 14.1758C10.7012 15.2697 9.7268 17.6828 10.1402 18.9201C12.2408 18.9078 12.7469 18.3056 14.1516 17.8303C14.0166 19.8501 10.5282 20.309 10.8108 25.7048C11.1778 25.6433 11.9497 25.2336 12.2661 25.037L13.6032 24.0742C13.637 23.9922 13.5821 24.0701 13.7002 23.9267C13.7635 23.8529 13.8099 23.8079 13.8732 23.7382C14.0124 23.5866 14.0672 23.4678 14.2317 23.4555C14.4679 23.0704 14.7801 22.7385 15.0627 22.3248C15.2905 21.997 15.5267 21.4521 15.7798 21.2227C15.8726 21.7307 15.8641 21.9191 15.6195 22.292C15.0796 23.1032 14.4468 23.6768 13.7509 24.2831C12.3926 25.4672 11.5279 26.7086 11.4225 28.671C11.3381 30.1542 12.0552 32.9729 12.8482 33.8415C13 33.6202 12.9958 33.4523 13.0844 33.1941C13.2995 32.5591 14.7126 29.4618 14.9741 29.0971C14.9108 30.5843 14.1136 31.9364 14.16 33.6039C14.198 34.9968 15.185 36.566 15.8683 37.201L16.2269 36.734C19.015 32.2436 14.6577 30.2566 15.5014 28.417C15.6827 28.6383 15.94 29.3102 16.1889 29.6461C16.5095 30.0763 16.8132 30.2771 17.0958 30.6212C17.3615 30.9449 17.5851 31.3259 17.7833 31.8175L18.1798 32.85C18.2136 32.9156 18.2305 32.936 18.2642 32.9893C18.3401 33.0876 18.2937 33.0385 18.3865 33.1081C18.7535 32.2436 19.2259 31.5471 19.4579 30.4409C19.9008 28.3105 18.7704 26.8151 17.37 25.3524L15.5688 23.4637C15.5056 24.3446 15.7334 25.3524 15.455 26.221C15.2567 25.5942 15.32 25.0329 15.2905 24.3569C14.7126 25.1189 15.4339 26.8397 14.5312 29.2405L12.7765 33.0426C12.3209 32.5386 11.8907 30.8302 11.781 29.978C11.2622 25.8687 13.7846 25.0206 15.5857 22.8328L16.0244 22.2879C16.4926 24.3405 18.4878 25.586 19.6351 27.2248C19.749 27.024 20.0738 25.1189 20.1202 24.742C20.2341 23.8284 20.1075 22.9352 19.7363 22.1936C19.4115 21.5463 18.8758 20.9441 18.4034 20.5589C18.1545 20.3541 16.9313 19.5224 16.5517 19.4609C16.4842 20.0099 16.4251 20.9522 16.1003 21.3005C15.9738 20.8129 16.0539 20.2721 16.1299 19.7887C16.1678 19.5388 16.2691 18.8587 16.2269 18.6088C16.1805 18.3383 16.1088 18.3302 16.0371 18.2646C15.4971 19.7477 15.784 20.3295 15.4212 21.1612C14.9825 22.1609 14.1347 22.968 14.0672 23.2507C13.7762 23.3941 13.6538 23.6317 13.4092 23.8529C12.844 24.361 11.8907 25.0534 11.1525 25.3033C11.0724 24.4306 11.3339 22.9475 11.6081 22.1732C12.0594 20.8949 13.308 20.0468 13.9407 19.0758C14.5481 18.1458 13.9407 18.2605 15.282 16.8102C15.9063 16.1341 15.746 16.2202 16.0919 15.8187C16.733 16.7446 16.5685 16.8061 17.5767 18.0802L19.1838 19.6617C19.576 19.9813 20.6854 20.9195 21.0186 21.0834C21.1494 19.3544 21.4193 16.8347 20.5124 15.5114C19.3651 13.8439 18.1756 13.9545 17.8508 11.6807L17.2561 11.6602L16.906 11.82C17.197 11.103 18.9897 9.07498 19.7363 8.94388C19.9683 8.71445 20.2931 8.61612 20.6348 8.43175C21.4953 7.97289 22.3515 7.5345 23.0306 6.89947C23.9544 6.03909 24.7094 5.19101 25.5995 4.27737C25.8736 3.9619 26.5949 3.36784 26.9029 3.21625C27.5862 2.56892 29.4421 1.88062 30.5852 1.58563C35.1703 0.397494 40.1013 1.3521 43.6529 3.88816L45.8885 5.64578L47.2087 7.00599C47.8541 7.78442 48.3603 8.23509 49.0183 9.24706C50.5452 11.5824 51.6419 13.9504 51.5745 17.3592L51.7179 17.2076C51.7347 17.183 51.8022 17.0765 51.8149 17.0601C51.8613 16.9822 51.9077 16.8634 51.9541 16.7733L52.9538 15.1017C53.2448 14.6879 54.2783 13.3605 54.9995 13.6227C56.5307 14.4339 53.2364 25.7007 51.7516 26.1309C51.5618 26.3767 51.5407 26.3972 51.2201 26.557C51.1991 25.9055 51.2497 25.0739 50.3807 25.2459C49.7354 25.3729 49.6679 26.1309 49.8071 26.7823C50.0138 27.7533 50.0222 27.7246 49.6088 28.499C49.3557 28.9701 49.0942 29.5191 48.8875 30.0231C48.4699 31.0473 48.0439 32.1166 47.6643 33.1941L46.3061 36.2587C46.0952 37.1478 45.3233 38.2581 44.8677 38.9054C44.1886 39.8723 43.7541 40.3557 43.016 41.1792C42.8388 41.3759 42.746 41.548 42.5478 41.7241L40.4471 43.7563C40.0085 44.2151 38.085 45.6368 37.5367 46.0014C37.098 46.2923 36.7268 46.5381 36.229 46.8045C35.2842 47.3166 34.4828 47.7181 33.3565 48.0909C31.0028 48.8694 27.9616 49.0701 27.2276 46.7758C26.9577 46.1612 27.2614 45.0632 27.5018 44.5429C27.679 44.1619 27.8055 44.0062 28.0375 43.6989L28.7166 42.986C29.071 42.7894 29.3915 42.5231 29.7712 42.31C31.5048 41.3308 34.0314 40.2451 35.2631 38.7169C36.3092 37.4223 36.0308 37.2871 36.4442 36.2956L37.4607 35.9228C36.2417 35.7794 36.0308 36.0457 34.9847 35.3861C34.4068 35.0214 33.8121 34.5052 33.3354 34.0586C31.4542 32.3051 30.3279 32.8705 28.8558 33.1778L28.6787 31.965L28.299 31.4365C26.8986 29.1832 25.7007 30.5762 24.2834 29.2569C24.3509 28.8964 24.7432 28.6997 25.0385 28.4949C25.3886 28.2531 25.8272 28.1097 26.2912 28.3187C27.1981 28.7284 27.3753 29.1996 28.6871 29.0111C29.2987 28.7653 29.7712 28.1507 30.581 28.1425C32.0489 28.1302 31.9266 29.1504 32.1502 29.3798C32.4665 28.9087 32.7196 28.6342 32.6943 27.7984C32.6732 26.8929 31.6018 24.2135 31.2644 22.9885C31.0113 22.0707 30.716 20.141 31.1336 19.2602C32.4032 16.5725 36.8491 20.1369 41.7252 18.4695C43.9608 17.7033 44.3109 16.7856 45.163 15.5237C45.3233 15.2861 45.4161 15.1058 45.6185 14.8968C45.7535 14.7535 45.956 14.5855 46.1036 14.3806C42.6701 14.5199 39.7132 11.0866 35.0564 14.2782C33.9428 15.0402 33.3186 16.5561 33.0824 16.8143C32.8841 16.7077 32.8166 16.5643 32.6901 16.3841C32.5973 16.2571 32.5003 16.1055 32.4243 15.9293C32.2598 15.5606 32.1755 15.1304 32.243 14.6797C32.3737 13.807 32.9347 13.1638 33.3987 12.8074C34.4575 12.0003 36.3176 11.4963 37.8404 11.1153C41.991 10.0747 42.9105 9.68544 46.5634 11.3406C46.8375 11.4635 47.2931 11.7258 47.542 11.7626C47.0063 10.5007 46.285 9.75919 45.028 9.11595C42.552 7.84588 38.7979 8.80458 36.1953 9.5994C35.0986 9.93536 34.3436 10.1812 33.3228 10.6646C32.8293 10.8982 32.5973 10.9473 32.6732 11.2136C32.8166 11.2833 32.6015 11.3365 32.9347 11.2218C32.9389 11.2218 33.095 11.1235 33.1203 11.1112C33.8754 10.6728 35.2294 10.2058 36.0477 9.95175C38.0639 9.329 42.1386 8.26787 44.1338 9.0545C45.4118 9.55843 46.188 10.1771 46.7996 11.0416C46.5254 11.0129 45.5595 10.5376 45.1672 10.4024C42.8936 9.61989 41.6662 9.86981 39.1648 10.4762C37.0305 10.9924 33.8543 11.652 32.572 13.1515C31.7832 14.0734 31.6271 15.5073 32.4117 16.5807C32.5804 16.8143 32.7576 16.9577 32.9727 17.1748C33.9471 18.1499 38.3086 18.6374 39.8102 18.4449C41.6577 18.2031 42.2567 17.5927 43.2733 17.2731C42.843 17.818 41.5438 18.2523 40.9153 18.3875C39.8313 18.621 38.8654 18.6579 37.7476 18.5924C36.769 18.535 35.7144 18.3629 34.7612 18.1499C32.863 17.7279 30.7835 17.5886 30.6106 20.2148C30.4081 23.2671 32.4834 26.1678 32.34 28.5399C32.0658 28.4498 32.1417 28.4375 31.9224 28.2654C31.8043 28.1712 31.6862 28.1056 31.5006 28.0319C29.8555 27.3928 29.0203 28.6055 28.5437 28.6669C28.046 29.2036 26.519 28.0155 26.0002 27.9664C25.4982 27.9172 25.0047 28.1466 24.701 28.3638C24.3256 28.6342 23.9291 28.9128 24.102 29.429C24.4353 29.6584 24.4057 29.9288 25.5193 30.1378C26.7805 30.3754 27.4343 30.3221 28.2569 31.8995C28.6702 32.6902 28.5648 32.9074 28.3328 33.6817C27.9447 33.5424 27.7465 33.2679 27.2487 33.0958C25.7766 32.5796 24.5829 33.1778 23.5073 33.9275C22.6974 34.4929 21.6134 35.4844 20.5715 35.7917C20.1075 35.9269 19.8924 35.9064 19.4959 35.9678L19.15 36.0744L20.6474 36.357C22.5118 36.8118 25.996 37.1273 28.0249 37.1273C27.5651 38.635 25.6543 38.8357 24.14 38.4629C23.1277 38.213 22.1027 37.7336 21.3476 37.1109L20.7149 36.6397C20.4492 36.5824 20.6348 36.5291 20.4914 36.7176C20.5884 36.7749 21.4489 37.8647 22.0014 38.3318C23.8827 39.9215 26.7426 40.9498 29.3662 40.6302C31.3867 40.5196 33.1119 39.5322 34.4743 38.2826C34.6979 38.0778 34.9383 37.9303 35.1534 37.7255C35.3981 37.4919 35.3643 37.3895 35.8157 37.1519C35.5795 38.0532 34.4912 39.1225 33.753 39.6552L32.7913 40.2984C32.2472 40.6425 31.4584 41.0686 30.813 41.3759C30.3364 41.6053 29.0541 42.4083 28.7757 42.4575C28.6787 42.6788 28.1852 43.068 27.9869 43.281C27.7338 43.5596 27.5313 43.8546 27.3331 44.2151C26.9366 44.9485 26.7046 45.8908 26.9197 46.7512C27.35 49.0496 30.2689 49.0824 32.2303 48.6891C34.3689 48.2589 36.0013 47.3125 37.5409 46.3456C38.3212 45.8539 39.5107 44.9116 40.2447 44.3298C40.4387 44.1742 40.5357 44.0431 40.7424 43.8833L42.6743 42.0437C43.6993 40.8843 44.3193 40.2042 45.2515 38.9382C45.6143 38.2499 45.956 37.9139 46.4832 36.8118C46.8629 36.0129 47.1961 35.3164 47.5167 34.4601C47.8879 33.4646 49.0394 30.2525 49.4907 29.6625C49.4612 30.8548 48.5754 32.9811 48.6218 35.4434C48.6387 36.312 48.8116 37.496 49.1955 38.1515C49.6341 38.9013 50.5199 39.3069 51.3889 38.6473C53.1183 37.3362 51.8571 32.4854 51.2876 30.4737C51.0809 29.7404 50.5579 28.5235 50.482 27.868C50.7772 27.487 51.3762 26.7987 51.8529 26.516C52.996 25.6638 53.5359 24.066 53.9956 22.7508C54.4976 21.321 56.8175 14.0119 55.0586 13.3031C53.8438 12.8156 52.3464 15.536 51.9752 15.9457L51.8866 16.0317C51.663 12.9221 50.3175 10.4885 48.896 8.5055C45.9011 4.33883 40.637 0.807196 35.2884 0.794905C33.7066 0.790808 31.9139 0.905524 30.4418 1.29884C28.2695 1.88881 28.2822 2.12644 26.692 2.95403ZM14.6367 17.0724C14.8138 16.9863 15.2525 16.4496 15.4128 16.2325C16.3323 15.0157 15.7123 14.6838 16.1383 13.6473C16.2775 13.3113 16.6023 12.8115 16.6656 12.537C16.2311 12.7664 15.4718 13.7005 15.1513 14.3356C14.7548 15.114 14.527 16.0563 14.6367 17.0724ZM10.3637 18.6497C11.5321 18.7071 12.7765 18.1745 13.734 17.6746C14.2275 17.4206 14.2402 17.4001 14.3245 16.7323C14.4468 15.7859 14.3793 15.073 14.8138 14.2946C15.2061 13.594 15.6912 13.1843 16.0961 12.5738L14.0082 13.4424C11.7262 14.397 10.389 15.8719 10.3637 18.6497ZM16.7668 12.3936C16.7035 12.8934 16.7246 13.3113 16.6276 13.848C16.5559 14.2331 16.3661 14.8231 16.3365 15.1632C16.2437 16.2489 18.0702 18.3343 18.9011 19.0676C19.1922 19.3257 20.4028 20.35 20.6938 20.4934C20.8035 19.7805 20.8457 18.4039 20.833 17.6623C20.774 14.606 17.9563 14.4175 17.4712 11.9511C17.2012 12.0699 16.9988 12.2215 16.7668 12.3936ZM15.8557 36.7094C17.1042 35.0665 17.1253 33.1286 16.113 31.2726C15.9696 31.0104 15.8388 30.7851 15.6996 30.5352C15.5478 30.2689 15.3579 29.9329 15.1639 29.7854C14.6156 32.2436 13.6834 34.034 15.5435 36.3939L15.7165 36.5947C15.7291 36.607 15.746 36.6234 15.7587 36.6315L15.8557 36.7094ZM18.357 32.4362C18.6691 32.0839 19.0825 30.8507 19.1753 30.2607C19.4664 28.4416 18.6607 27.1428 17.505 25.9219C17.2392 25.6433 17.0831 25.3811 16.7837 25.123C16.2775 24.6887 16.2817 24.488 15.9021 24.3323C15.9021 26.1759 15.3031 27.528 16.1847 29.134C16.3619 29.4577 16.5306 29.683 16.7794 29.9165C18.3444 31.416 17.893 31.8708 18.357 32.4362ZM19.5043 26.4054C19.8376 24.9141 20.137 23.6932 19.4368 22.2592C18.9771 21.321 17.8466 20.2762 16.809 19.8788C16.4715 21.8085 15.5984 22.1117 17.5007 24.4265C17.8213 24.8116 19.053 26.2415 19.5043 26.4054ZM20.7908 36.103C21.5754 36.4636 27.1053 36.988 28.1177 36.8692C28.2948 35.9596 28.4171 34.6937 27.9447 33.9316C27.506 33.2187 26.1478 33.0344 25.165 33.3457C24.0514 33.6981 22.8872 34.7715 21.9339 35.4311C21.6387 35.636 20.9933 35.9146 20.7908 36.103ZM50.2837 27.3559C50.8026 26.979 50.9924 26.4464 50.7899 25.5983C50.2373 25.5286 50.077 25.713 50.0602 26.2374C50.0475 26.5857 50.1066 27.1551 50.2837 27.3559ZM50.1403 28.2613C50.0222 28.5317 49.689 30.4983 49.5835 30.9859C49.3811 31.9077 49.1575 32.85 49.0394 33.8128C48.8918 35.0173 48.799 39.0939 50.676 38.6883C53.5232 38.0778 50.6212 28.8554 50.1403 28.2613ZM30.4798 37.1191L30.4671 37.1232L30.4503 37.1273L30.4334 37.1314L30.4165 37.1355L30.3997 37.1396L30.3786 37.1437L30.3575 37.1478L30.3364 37.1519L30.3153 37.156L30.2942 37.1601L30.2689 37.1642L30.2436 37.1683L30.2183 37.1724L30.193 37.1765L30.1677 37.1805L30.1423 37.1846L30.1128 37.1887L30.0833 37.1928L30.0538 37.1969L30.0242 37.201L29.9947 37.2051L29.9652 37.2092L29.9357 37.2133L29.9061 37.2174L29.8766 37.2215L29.8471 37.2256L29.8133 37.2297L29.7796 37.2338L29.7458 37.2379L29.7121 37.242L29.6784 37.2461H29.6446H29.6109H29.5771H29.5434H29.5096H29.4759H29.4421H29.4084H29.3747H29.3409H29.3114H29.2819H29.2523H29.2228H29.1933H29.1638H29.1342H29.1047H29.0752H29.0456H29.0203H28.995H28.9697H28.9444H28.9191H28.8938H28.8727H28.8516H28.8305H28.8094H28.7926H28.7757L28.7588 37.242L28.7208 40.3557L28.7588 37.242L30.4798 37.1191ZM28.8769 40.3885C30.6148 40.5278 32.6437 39.4052 33.8079 38.467C34.2255 38.1311 35.6259 36.9429 35.8663 36.5906L35.9717 36.4062C34.1411 36.7708 32.4075 37.0576 30.4714 37.1191L28.4467 37.1396L28.008 37.7664C27.8266 38.0041 27.6663 38.1474 27.4723 38.3154C25.7893 39.7412 23.115 38.3359 22.2967 38.1474C23.2458 39.4216 27.5145 40.9129 28.8769 40.3885ZM28.3792 33.8865C28.4382 34.3249 28.6027 34.6773 28.6407 35.2427C28.6787 35.8244 28.5859 36.2628 28.5184 36.8077C30.3237 36.9347 33.3903 36.6643 35.2631 36.2464L35.6638 36.0784C33.656 35.4024 32.5171 32.9729 30.4165 33.1286C29.788 33.1737 28.7209 33.5383 28.3792 33.8865Z" fill="white"></path> <mask id="path-4-outside-1" maskUnits="userSpaceOnUse" x="9.04443" y="-0.2052" width="47" height="50" fill="black"> <rect fill="white" x="9.04443" y="-0.2052" width="47" height="50"></rect> <path fill-rule="evenodd" clip-rule="evenodd" d="M26.692 2.95403C26.3081 3.26131 25.5615 3.73247 25.397 4.11349C25.0469 4.29786 24.1864 5.26885 23.9249 5.56384C22.9969 6.61677 22.0183 7.38291 20.7276 8.03434L18.8337 9.02992C18.6607 9.24706 18.4245 9.40275 18.2178 9.59531C17.9985 9.79606 17.8044 10.0173 17.5978 10.2754C17.3911 10.5294 16.6276 11.5824 16.4378 11.693C16.2184 12.2666 15.1681 12.7377 14.4004 13.0368C13.4303 13.4137 12.8397 13.6186 12.1185 14.1758C10.7012 15.2697 9.7268 17.6828 10.1402 18.9201C12.2408 18.9078 12.7469 18.3056 14.1516 17.8303C14.0166 19.8501 10.5282 20.309 10.8108 25.7048C11.1778 25.6433 11.9497 25.2336 12.2661 25.037L13.6032 24.0742C13.637 23.9922 13.5821 24.0701 13.7002 23.9267C13.7635 23.8529 13.8099 23.8079 13.8732 23.7382C14.0124 23.5866 14.0672 23.4678 14.2317 23.4555C14.4679 23.0704 14.7801 22.7385 15.0627 22.3248C15.2905 21.997 15.5267 21.4521 15.7798 21.2227C15.8726 21.7307 15.8641 21.9191 15.6195 22.292C15.0796 23.1032 14.4468 23.6768 13.7509 24.2831C12.3926 25.4672 11.5279 26.7086 11.4225 28.671C11.3381 30.1542 12.0552 32.9729 12.8482 33.8415C13 33.6202 12.9958 33.4523 13.0844 33.1941C13.2995 32.5591 14.7126 29.4618 14.9741 29.0971C14.9108 30.5843 14.1136 31.9364 14.16 33.6039C14.198 34.9968 15.185 36.566 15.8683 37.201L16.2269 36.734C19.015 32.2436 14.6577 30.2566 15.5014 28.417C15.6827 28.6383 15.94 29.3102 16.1889 29.6461C16.5095 30.0763 16.8132 30.2771 17.0958 30.6212C17.3615 30.9449 17.5851 31.3259 17.7833 31.8175L18.1798 32.85C18.2136 32.9156 18.2305 32.936 18.2642 32.9893C18.3401 33.0876 18.2937 33.0385 18.3865 33.1081C18.7535 32.2436 19.2259 31.5471 19.4579 30.4409C19.9008 28.3105 18.7704 26.8151 17.37 25.3524L15.5688 23.4637C15.5056 24.3446 15.7334 25.3524 15.455 26.221C15.2567 25.5942 15.32 25.0329 15.2905 24.3569C14.7126 25.1189 15.4339 26.8397 14.5312 29.2405L12.7765 33.0426C12.3209 32.5386 11.8907 30.8302 11.781 29.978C11.2622 25.8687 13.7846 25.0206 15.5857 22.8328L16.0244 22.2879C16.4926 24.3405 18.4878 25.586 19.6351 27.2248C19.749 27.024 20.0738 25.1189 20.1202 24.742C20.2341 23.8284 20.1075 22.9352 19.7363 22.1936C19.4115 21.5463 18.8758 20.9441 18.4034 20.5589C18.1545 20.3541 16.9313 19.5224 16.5517 19.4609C16.4842 20.0099 16.4251 20.9522 16.1003 21.3005C15.9738 20.8129 16.0539 20.2721 16.1299 19.7887C16.1678 19.5388 16.2691 18.8587 16.2269 18.6088C16.1805 18.3383 16.1088 18.3302 16.0371 18.2646C15.4971 19.7477 15.784 20.3295 15.4212 21.1612C14.9825 22.1609 14.1347 22.968 14.0672 23.2507C13.7762 23.3941 13.6538 23.6317 13.4092 23.8529C12.844 24.361 11.8907 25.0534 11.1525 25.3033C11.0724 24.4306 11.3339 22.9475 11.6081 22.1732C12.0594 20.8949 13.308 20.0468 13.9407 19.0758C14.5481 18.1458 13.9407 18.2605 15.282 16.8102C15.9063 16.1341 15.746 16.2202 16.0919 15.8187C16.733 16.7446 16.5685 16.8061 17.5767 18.0802L19.1838 19.6617C19.576 19.9813 20.6854 20.9195 21.0186 21.0834C21.1494 19.3544 21.4193 16.8347 20.5124 15.5114C19.3651 13.8439 18.1756 13.9545 17.8508 11.6807L17.2561 11.6602L16.906 11.82C17.197 11.103 18.9897 9.07498 19.7363 8.94388C19.9683 8.71445 20.2931 8.61612 20.6348 8.43175C21.4953 7.97289 22.3515 7.5345 23.0306 6.89947C23.9544 6.03909 24.7094 5.19101 25.5995 4.27737C25.8736 3.9619 26.5949 3.36784 26.9029 3.21625C27.5862 2.56892 29.4421 1.88062 30.5852 1.58563C35.1703 0.397494 40.1013 1.3521 43.6529 3.88816L45.8885 5.64578L47.2087 7.00599C47.8541 7.78442 48.3603 8.23509 49.0183 9.24706C50.5452 11.5824 51.6419 13.9504 51.5745 17.3592L51.7179 17.2076C51.7347 17.183 51.8022 17.0765 51.8149 17.0601C51.8613 16.9822 51.9077 16.8634 51.9541 16.7733L52.9538 15.1017C53.2448 14.6879 54.2783 13.3605 54.9995 13.6227C56.5307 14.4339 53.2364 25.7007 51.7516 26.1309C51.5618 26.3767 51.5407 26.3972 51.2201 26.557C51.1991 25.9055 51.2497 25.0739 50.3807 25.2459C49.7354 25.3729 49.6679 26.1309 49.8071 26.7823C50.0138 27.7533 50.0222 27.7246 49.6088 28.499C49.3557 28.9701 49.0942 29.5191 48.8875 30.0231C48.4699 31.0473 48.0439 32.1166 47.6643 33.1941L46.3061 36.2587C46.0952 37.1478 45.3233 38.2581 44.8677 38.9054C44.1886 39.8723 43.7541 40.3557 43.016 41.1792C42.8388 41.3759 42.746 41.548 42.5478 41.7241L40.4471 43.7563C40.0085 44.2151 38.085 45.6368 37.5367 46.0014C37.098 46.2923 36.7268 46.5381 36.229 46.8045C35.2842 47.3166 34.4828 47.7181 33.3565 48.0909C31.0028 48.8694 27.9616 49.0701 27.2276 46.7758C26.9577 46.1612 27.2614 45.0632 27.5018 44.5429C27.679 44.1619 27.8055 44.0062 28.0375 43.6989L28.7166 42.986C29.071 42.7894 29.3915 42.5231 29.7712 42.31C31.5048 41.3308 34.0314 40.2451 35.2631 38.7169C36.3092 37.4223 36.0308 37.2871 36.4442 36.2956L37.4607 35.9228C36.2417 35.7794 36.0308 36.0457 34.9847 35.3861C34.4068 35.0214 33.8121 34.5052 33.3354 34.0586C31.4542 32.3051 30.3279 32.8705 28.8558 33.1778L28.6787 31.965L28.299 31.4365C26.8986 29.1832 25.7007 30.5762 24.2834 29.2569C24.3509 28.8964 24.7432 28.6997 25.0385 28.4949C25.3886 28.2531 25.8272 28.1097 26.2912 28.3187C27.1981 28.7284 27.3753 29.1996 28.6871 29.0111C29.2987 28.7653 29.7712 28.1507 30.581 28.1425C32.0489 28.1302 31.9266 29.1504 32.1502 29.3798C32.4665 28.9087 32.7196 28.6342 32.6943 27.7984C32.6732 26.8929 31.6018 24.2135 31.2644 22.9885C31.0113 22.0707 30.716 20.141 31.1336 19.2602C32.4032 16.5725 36.8491 20.1369 41.7252 18.4695C43.9608 17.7033 44.3109 16.7856 45.163 15.5237C45.3233 15.2861 45.4161 15.1058 45.6185 14.8968C45.7535 14.7535 45.956 14.5855 46.1036 14.3806C42.6701 14.5199 39.7132 11.0866 35.0564 14.2782C33.9428 15.0402 33.3186 16.5561 33.0824 16.8143C32.8841 16.7077 32.8166 16.5643 32.6901 16.3841C32.5973 16.2571 32.5003 16.1055 32.4243 15.9293C32.2598 15.5606 32.1755 15.1304 32.243 14.6797C32.3737 13.807 32.9347 13.1638 33.3987 12.8074C34.4575 12.0003 36.3176 11.4963 37.8404 11.1153C41.991 10.0747 42.9105 9.68544 46.5634 11.3406C46.8375 11.4635 47.2931 11.7258 47.542 11.7626C47.0063 10.5007 46.285 9.75919 45.028 9.11595C42.552 7.84588 38.7979 8.80458 36.1953 9.5994C35.0986 9.93536 34.3436 10.1812 33.3228 10.6646C32.8293 10.8982 32.5973 10.9473 32.6732 11.2136C32.8166 11.2833 32.6015 11.3365 32.9347 11.2218C32.9389 11.2218 33.095 11.1235 33.1203 11.1112C33.8754 10.6728 35.2294 10.2058 36.0477 9.95175C38.0639 9.329 42.1386 8.26787 44.1338 9.0545C45.4118 9.55843 46.188 10.1771 46.7996 11.0416C46.5254 11.0129 45.5595 10.5376 45.1672 10.4024C42.8936 9.61989 41.6662 9.86981 39.1648 10.4762C37.0305 10.9924 33.8543 11.652 32.572 13.1515C31.7832 14.0734 31.6271 15.5073 32.4117 16.5807C32.5804 16.8143 32.7576 16.9577 32.9727 17.1748C33.9471 18.1499 38.3086 18.6374 39.8102 18.4449C41.6577 18.2031 42.2567 17.5927 43.2733 17.2731C42.843 17.818 41.5438 18.2523 40.9153 18.3875C39.8313 18.621 38.8654 18.6579 37.7476 18.5924C36.769 18.535 35.7144 18.3629 34.7612 18.1499C32.863 17.7279 30.7835 17.5886 30.6106 20.2148C30.4081 23.2671 32.4834 26.1678 32.34 28.5399C32.0658 28.4498 32.1417 28.4375 31.9224 28.2654C31.8043 28.1712 31.6862 28.1056 31.5006 28.0319C29.8555 27.3928 29.0203 28.6055 28.5437 28.6669C28.046 29.2036 26.519 28.0155 26.0002 27.9664C25.4982 27.9172 25.0047 28.1466 24.701 28.3638C24.3256 28.6342 23.9291 28.9128 24.102 29.429C24.4353 29.6584 24.4057 29.9288 25.5193 30.1378C26.7805 30.3754 27.4343 30.3221 28.2569 31.8995C28.6702 32.6902 28.5648 32.9074 28.3328 33.6817C27.9447 33.5424 27.7465 33.2679 27.2487 33.0958C25.7766 32.5796 24.5829 33.1778 23.5073 33.9275C22.6974 34.4929 21.6134 35.4844 20.5715 35.7917C20.1075 35.9269 19.8924 35.9064 19.4959 35.9678L19.15 36.0744L20.6474 36.357C22.5118 36.8118 25.996 37.1273 28.0249 37.1273C27.5651 38.635 25.6543 38.8357 24.14 38.4629C23.1277 38.213 22.1027 37.7336 21.3476 37.1109L20.7149 36.6397C20.4492 36.5824 20.6348 36.5291 20.4914 36.7176C20.5884 36.7749 21.4489 37.8647 22.0014 38.3318C23.8827 39.9215 26.7426 40.9498 29.3662 40.6302C31.3867 40.5196 33.1119 39.5322 34.4743 38.2826C34.6979 38.0778 34.9383 37.9303 35.1534 37.7255C35.3981 37.4919 35.3643 37.3895 35.8157 37.1519C35.5795 38.0532 34.4912 39.1225 33.753 39.6552L32.7913 40.2984C32.2472 40.6425 31.4584 41.0686 30.813 41.3759C30.3364 41.6053 29.0541 42.4083 28.7757 42.4575C28.6787 42.6788 28.1852 43.068 27.9869 43.281C27.7338 43.5596 27.5313 43.8546 27.3331 44.2151C26.9366 44.9485 26.7046 45.8908 26.9197 46.7512C27.35 49.0496 30.2689 49.0824 32.2303 48.6891C34.3689 48.2589 36.0013 47.3125 37.5409 46.3456C38.3212 45.8539 39.5107 44.9116 40.2447 44.3298C40.4387 44.1742 40.5357 44.0431 40.7424 43.8833L42.6743 42.0437C43.6993 40.8843 44.3193 40.2042 45.2515 38.9382C45.6143 38.2499 45.956 37.9139 46.4832 36.8118C46.8629 36.0129 47.1961 35.3164 47.5167 34.4601C47.8879 33.4646 49.0394 30.2525 49.4907 29.6625C49.4612 30.8548 48.5754 32.9811 48.6218 35.4434C48.6387 36.312 48.8116 37.496 49.1955 38.1515C49.6341 38.9013 50.5199 39.3069 51.3889 38.6473C53.1183 37.3362 51.8571 32.4854 51.2876 30.4737C51.0809 29.7404 50.5579 28.5235 50.482 27.868C50.7772 27.487 51.3762 26.7987 51.8529 26.516C52.996 25.6638 53.5359 24.066 53.9956 22.7508C54.4976 21.321 56.8175 14.0119 55.0586 13.3031C53.8438 12.8156 52.3464 15.536 51.9752 15.9457L51.8866 16.0317C51.663 12.9221 50.3175 10.4885 48.896 8.5055C45.9011 4.33883 40.637 0.807196 35.2884 0.794905C33.7066 0.790808 31.9139 0.905524 30.4418 1.29884C28.2695 1.88881 28.2822 2.12644 26.692 2.95403ZM14.6367 17.0724C14.8138 16.9863 15.2525 16.4496 15.4128 16.2325C16.3323 15.0157 15.7123 14.6838 16.1383 13.6473C16.2775 13.3113 16.6023 12.8115 16.6656 12.537C16.2311 12.7664 15.4718 13.7005 15.1513 14.3356C14.7548 15.114 14.527 16.0563 14.6367 17.0724ZM10.3637 18.6497C11.5321 18.7071 12.7765 18.1745 13.734 17.6746C14.2275 17.4206 14.2402 17.4001 14.3245 16.7323C14.4468 15.7859 14.3793 15.073 14.8138 14.2946C15.2061 13.594 15.6912 13.1843 16.0961 12.5738L14.0082 13.4424C11.7262 14.397 10.389 15.8719 10.3637 18.6497ZM16.7668 12.3936C16.7035 12.8934 16.7246 13.3113 16.6276 13.848C16.5559 14.2331 16.3661 14.8231 16.3365 15.1632C16.2437 16.2489 18.0702 18.3343 18.9011 19.0676C19.1922 19.3257 20.4028 20.35 20.6938 20.4934C20.8035 19.7805 20.8457 18.4039 20.833 17.6623C20.774 14.606 17.9563 14.4175 17.4712 11.9511C17.2012 12.0699 16.9988 12.2215 16.7668 12.3936ZM15.8557 36.7094C17.1042 35.0665 17.1253 33.1286 16.113 31.2726C15.9696 31.0104 15.8388 30.7851 15.6996 30.5352C15.5478 30.2689 15.3579 29.9329 15.1639 29.7854C14.6156 32.2436 13.6834 34.034 15.5435 36.3939L15.7165 36.5947C15.7291 36.607 15.746 36.6234 15.7587 36.6315L15.8557 36.7094ZM18.357 32.4362C18.6691 32.0839 19.0825 30.8507 19.1753 30.2607C19.4664 28.4416 18.6607 27.1428 17.505 25.9219C17.2392 25.6433 17.0831 25.3811 16.7837 25.123C16.2775 24.6887 16.2817 24.488 15.9021 24.3323C15.9021 26.1759 15.3031 27.528 16.1847 29.134C16.3619 29.4577 16.5306 29.683 16.7794 29.9165C18.3444 31.416 17.893 31.8708 18.357 32.4362ZM19.5043 26.4054C19.8376 24.9141 20.137 23.6932 19.4368 22.2592C18.9771 21.321 17.8466 20.2762 16.809 19.8788C16.4715 21.8085 15.5984 22.1117 17.5007 24.4265C17.8213 24.8116 19.053 26.2415 19.5043 26.4054ZM20.7908 36.103C21.5754 36.4636 27.1053 36.988 28.1177 36.8692C28.2948 35.9596 28.4171 34.6937 27.9447 33.9316C27.506 33.2187 26.1478 33.0344 25.165 33.3457C24.0514 33.6981 22.8872 34.7715 21.9339 35.4311C21.6387 35.636 20.9933 35.9146 20.7908 36.103ZM50.2837 27.3559C50.8026 26.979 50.9924 26.4464 50.7899 25.5983C50.2373 25.5286 50.077 25.713 50.0602 26.2374C50.0475 26.5857 50.1066 27.1551 50.2837 27.3559ZM50.1403 28.2613C50.0222 28.5317 49.689 30.4983 49.5835 30.9859C49.3811 31.9077 49.1575 32.85 49.0394 33.8128C48.8918 35.0173 48.799 39.0939 50.676 38.6883C53.5232 38.0778 50.6212 28.8554 50.1403 28.2613ZM30.4798 37.1191L30.4671 37.1232L30.4503 37.1273L30.4334 37.1314L30.4165 37.1355L30.3997 37.1396L30.3786 37.1437L30.3575 37.1478L30.3364 37.1519L30.3153 37.156L30.2942 37.1601L30.2689 37.1642L30.2436 37.1683L30.2183 37.1724L30.193 37.1765L30.1677 37.1805L30.1423 37.1846L30.1128 37.1887L30.0833 37.1928L30.0538 37.1969L30.0242 37.201L29.9947 37.2051L29.9652 37.2092L29.9357 37.2133L29.9061 37.2174L29.8766 37.2215L29.8471 37.2256L29.8133 37.2297L29.7796 37.2338L29.7458 37.2379L29.7121 37.242L29.6784 37.2461H29.6446H29.6109H29.5771H29.5434H29.5096H29.4759H29.4421H29.4084H29.3747H29.3409H29.3114H29.2819H29.2523H29.2228H29.1933H29.1638H29.1342H29.1047H29.0752H29.0456H29.0203H28.995H28.9697H28.9444H28.9191H28.8938H28.8727H28.8516H28.8305H28.8094H28.7926H28.7757L28.7588 37.242L28.7208 40.3557L28.7588 37.242L30.4798 37.1191ZM28.8769 40.3885C30.6148 40.5278 32.6437 39.4052 33.8079 38.467C34.2255 38.1311 35.6259 36.9429 35.8663 36.5906L35.9717 36.4062C34.1411 36.7708 32.4075 37.0576 30.4714 37.1191L28.4467 37.1396L28.008 37.7664C27.8266 38.0041 27.6663 38.1474 27.4723 38.3154C25.7893 39.7412 23.115 38.3359 22.2967 38.1474C23.2458 39.4216 27.5145 40.9129 28.8769 40.3885ZM28.3792 33.8865C28.4382 34.3249 28.6027 34.6773 28.6407 35.2427C28.6787 35.8244 28.5859 36.2628 28.5184 36.8077C30.3237 36.9347 33.3903 36.6643 35.2631 36.2464L35.6638 36.0784C33.656 35.4024 32.5171 32.9729 30.4165 33.1286C29.788 33.1737 28.7209 33.5383 28.3792 33.8865Z"></path> </mask> <path fill-rule="evenodd" clip-rule="evenodd" d="M26.692 2.95403C26.3081 3.26131 25.5615 3.73247 25.397 4.11349C25.0469 4.29786 24.1864 5.26885 23.9249 5.56384C22.9969 6.61677 22.0183 7.38291 20.7276 8.03434L18.8337 9.02992C18.6607 9.24706 18.4245 9.40275 18.2178 9.59531C17.9985 9.79606 17.8044 10.0173 17.5978 10.2754C17.3911 10.5294 16.6276 11.5824 16.4378 11.693C16.2184 12.2666 15.1681 12.7377 14.4004 13.0368C13.4303 13.4137 12.8397 13.6186 12.1185 14.1758C10.7012 15.2697 9.7268 17.6828 10.1402 18.9201C12.2408 18.9078 12.7469 18.3056 14.1516 17.8303C14.0166 19.8501 10.5282 20.309 10.8108 25.7048C11.1778 25.6433 11.9497 25.2336 12.2661 25.037L13.6032 24.0742C13.637 23.9922 13.5821 24.0701 13.7002 23.9267C13.7635 23.8529 13.8099 23.8079 13.8732 23.7382C14.0124 23.5866 14.0672 23.4678 14.2317 23.4555C14.4679 23.0704 14.7801 22.7385 15.0627 22.3248C15.2905 21.997 15.5267 21.4521 15.7798 21.2227C15.8726 21.7307 15.8641 21.9191 15.6195 22.292C15.0796 23.1032 14.4468 23.6768 13.7509 24.2831C12.3926 25.4672 11.5279 26.7086 11.4225 28.671C11.3381 30.1542 12.0552 32.9729 12.8482 33.8415C13 33.6202 12.9958 33.4523 13.0844 33.1941C13.2995 32.5591 14.7126 29.4618 14.9741 29.0971C14.9108 30.5843 14.1136 31.9364 14.16 33.6039C14.198 34.9968 15.185 36.566 15.8683 37.201L16.2269 36.734C19.015 32.2436 14.6577 30.2566 15.5014 28.417C15.6827 28.6383 15.94 29.3102 16.1889 29.6461C16.5095 30.0763 16.8132 30.2771 17.0958 30.6212C17.3615 30.9449 17.5851 31.3259 17.7833 31.8175L18.1798 32.85C18.2136 32.9156 18.2305 32.936 18.2642 32.9893C18.3401 33.0876 18.2937 33.0385 18.3865 33.1081C18.7535 32.2436 19.2259 31.5471 19.4579 30.4409C19.9008 28.3105 18.7704 26.8151 17.37 25.3524L15.5688 23.4637C15.5056 24.3446 15.7334 25.3524 15.455 26.221C15.2567 25.5942 15.32 25.0329 15.2905 24.3569C14.7126 25.1189 15.4339 26.8397 14.5312 29.2405L12.7765 33.0426C12.3209 32.5386 11.8907 30.8302 11.781 29.978C11.2622 25.8687 13.7846 25.0206 15.5857 22.8328L16.0244 22.2879C16.4926 24.3405 18.4878 25.586 19.6351 27.2248C19.749 27.024 20.0738 25.1189 20.1202 24.742C20.2341 23.8284 20.1075 22.9352 19.7363 22.1936C19.4115 21.5463 18.8758 20.9441 18.4034 20.5589C18.1545 20.3541 16.9313 19.5224 16.5517 19.4609C16.4842 20.0099 16.4251 20.9522 16.1003 21.3005C15.9738 20.8129 16.0539 20.2721 16.1299 19.7887C16.1678 19.5388 16.2691 18.8587 16.2269 18.6088C16.1805 18.3383 16.1088 18.3302 16.0371 18.2646C15.4971 19.7477 15.784 20.3295 15.4212 21.1612C14.9825 22.1609 14.1347 22.968 14.0672 23.2507C13.7762 23.3941 13.6538 23.6317 13.4092 23.8529C12.844 24.361 11.8907 25.0534 11.1525 25.3033C11.0724 24.4306 11.3339 22.9475 11.6081 22.1732C12.0594 20.8949 13.308 20.0468 13.9407 19.0758C14.5481 18.1458 13.9407 18.2605 15.282 16.8102C15.9063 16.1341 15.746 16.2202 16.0919 15.8187C16.733 16.7446 16.5685 16.8061 17.5767 18.0802L19.1838 19.6617C19.576 19.9813 20.6854 20.9195 21.0186 21.0834C21.1494 19.3544 21.4193 16.8347 20.5124 15.5114C19.3651 13.8439 18.1756 13.9545 17.8508 11.6807L17.2561 11.6602L16.906 11.82C17.197 11.103 18.9897 9.07498 19.7363 8.94388C19.9683 8.71445 20.2931 8.61612 20.6348 8.43175C21.4953 7.97289 22.3515 7.5345 23.0306 6.89947C23.9544 6.03909 24.7094 5.19101 25.5995 4.27737C25.8736 3.9619 26.5949 3.36784 26.9029 3.21625C27.5862 2.56892 29.4421 1.88062 30.5852 1.58563C35.1703 0.397494 40.1013 1.3521 43.6529 3.88816L45.8885 5.64578L47.2087 7.00599C47.8541 7.78442 48.3603 8.23509 49.0183 9.24706C50.5452 11.5824 51.6419 13.9504 51.5745 17.3592L51.7179 17.2076C51.7347 17.183 51.8022 17.0765 51.8149 17.0601C51.8613 16.9822 51.9077 16.8634 51.9541 16.7733L52.9538 15.1017C53.2448 14.6879 54.2783 13.3605 54.9995 13.6227C56.5307 14.4339 53.2364 25.7007 51.7516 26.1309C51.5618 26.3767 51.5407 26.3972 51.2201 26.557C51.1991 25.9055 51.2497 25.0739 50.3807 25.2459C49.7354 25.3729 49.6679 26.1309 49.8071 26.7823C50.0138 27.7533 50.0222 27.7246 49.6088 28.499C49.3557 28.9701 49.0942 29.5191 48.8875 30.0231C48.4699 31.0473 48.0439 32.1166 47.6643 33.1941L46.3061 36.2587C46.0952 37.1478 45.3233 38.2581 44.8677 38.9054C44.1886 39.8723 43.7541 40.3557 43.016 41.1792C42.8388 41.3759 42.746 41.548 42.5478 41.7241L40.4471 43.7563C40.0085 44.2151 38.085 45.6368 37.5367 46.0014C37.098 46.2923 36.7268 46.5381 36.229 46.8045C35.2842 47.3166 34.4828 47.7181 33.3565 48.0909C31.0028 48.8694 27.9616 49.0701 27.2276 46.7758C26.9577 46.1612 27.2614 45.0632 27.5018 44.5429C27.679 44.1619 27.8055 44.0062 28.0375 43.6989L28.7166 42.986C29.071 42.7894 29.3915 42.5231 29.7712 42.31C31.5048 41.3308 34.0314 40.2451 35.2631 38.7169C36.3092 37.4223 36.0308 37.2871 36.4442 36.2956L37.4607 35.9228C36.2417 35.7794 36.0308 36.0457 34.9847 35.3861C34.4068 35.0214 33.8121 34.5052 33.3354 34.0586C31.4542 32.3051 30.3279 32.8705 28.8558 33.1778L28.6787 31.965L28.299 31.4365C26.8986 29.1832 25.7007 30.5762 24.2834 29.2569C24.3509 28.8964 24.7432 28.6997 25.0385 28.4949C25.3886 28.2531 25.8272 28.1097 26.2912 28.3187C27.1981 28.7284 27.3753 29.1996 28.6871 29.0111C29.2987 28.7653 29.7712 28.1507 30.581 28.1425C32.0489 28.1302 31.9266 29.1504 32.1502 29.3798C32.4665 28.9087 32.7196 28.6342 32.6943 27.7984C32.6732 26.8929 31.6018 24.2135 31.2644 22.9885C31.0113 22.0707 30.716 20.141 31.1336 19.2602C32.4032 16.5725 36.8491 20.1369 41.7252 18.4695C43.9608 17.7033 44.3109 16.7856 45.163 15.5237C45.3233 15.2861 45.4161 15.1058 45.6185 14.8968C45.7535 14.7535 45.956 14.5855 46.1036 14.3806C42.6701 14.5199 39.7132 11.0866 35.0564 14.2782C33.9428 15.0402 33.3186 16.5561 33.0824 16.8143C32.8841 16.7077 32.8166 16.5643 32.6901 16.3841C32.5973 16.2571 32.5003 16.1055 32.4243 15.9293C32.2598 15.5606 32.1755 15.1304 32.243 14.6797C32.3737 13.807 32.9347 13.1638 33.3987 12.8074C34.4575 12.0003 36.3176 11.4963 37.8404 11.1153C41.991 10.0747 42.9105 9.68544 46.5634 11.3406C46.8375 11.4635 47.2931 11.7258 47.542 11.7626C47.0063 10.5007 46.285 9.75919 45.028 9.11595C42.552 7.84588 38.7979 8.80458 36.1953 9.5994C35.0986 9.93536 34.3436 10.1812 33.3228 10.6646C32.8293 10.8982 32.5973 10.9473 32.6732 11.2136C32.8166 11.2833 32.6015 11.3365 32.9347 11.2218C32.9389 11.2218 33.095 11.1235 33.1203 11.1112C33.8754 10.6728 35.2294 10.2058 36.0477 9.95175C38.0639 9.329 42.1386 8.26787 44.1338 9.0545C45.4118 9.55843 46.188 10.1771 46.7996 11.0416C46.5254 11.0129 45.5595 10.5376 45.1672 10.4024C42.8936 9.61989 41.6662 9.86981 39.1648 10.4762C37.0305 10.9924 33.8543 11.652 32.572 13.1515C31.7832 14.0734 31.6271 15.5073 32.4117 16.5807C32.5804 16.8143 32.7576 16.9577 32.9727 17.1748C33.9471 18.1499 38.3086 18.6374 39.8102 18.4449C41.6577 18.2031 42.2567 17.5927 43.2733 17.2731C42.843 17.818 41.5438 18.2523 40.9153 18.3875C39.8313 18.621 38.8654 18.6579 37.7476 18.5924C36.769 18.535 35.7144 18.3629 34.7612 18.1499C32.863 17.7279 30.7835 17.5886 30.6106 20.2148C30.4081 23.2671 32.4834 26.1678 32.34 28.5399C32.0658 28.4498 32.1417 28.4375 31.9224 28.2654C31.8043 28.1712 31.6862 28.1056 31.5006 28.0319C29.8555 27.3928 29.0203 28.6055 28.5437 28.6669C28.046 29.2036 26.519 28.0155 26.0002 27.9664C25.4982 27.9172 25.0047 28.1466 24.701 28.3638C24.3256 28.6342 23.9291 28.9128 24.102 29.429C24.4353 29.6584 24.4057 29.9288 25.5193 30.1378C26.7805 30.3754 27.4343 30.3221 28.2569 31.8995C28.6702 32.6902 28.5648 32.9074 28.3328 33.6817C27.9447 33.5424 27.7465 33.2679 27.2487 33.0958C25.7766 32.5796 24.5829 33.1778 23.5073 33.9275C22.6974 34.4929 21.6134 35.4844 20.5715 35.7917C20.1075 35.9269 19.8924 35.9064 19.4959 35.9678L19.15 36.0744L20.6474 36.357C22.5118 36.8118 25.996 37.1273 28.0249 37.1273C27.5651 38.635 25.6543 38.8357 24.14 38.4629C23.1277 38.213 22.1027 37.7336 21.3476 37.1109L20.7149 36.6397C20.4492 36.5824 20.6348 36.5291 20.4914 36.7176C20.5884 36.7749 21.4489 37.8647 22.0014 38.3318C23.8827 39.9215 26.7426 40.9498 29.3662 40.6302C31.3867 40.5196 33.1119 39.5322 34.4743 38.2826C34.6979 38.0778 34.9383 37.9303 35.1534 37.7255C35.3981 37.4919 35.3643 37.3895 35.8157 37.1519C35.5795 38.0532 34.4912 39.1225 33.753 39.6552L32.7913 40.2984C32.2472 40.6425 31.4584 41.0686 30.813 41.3759C30.3364 41.6053 29.0541 42.4083 28.7757 42.4575C28.6787 42.6788 28.1852 43.068 27.9869 43.281C27.7338 43.5596 27.5313 43.8546 27.3331 44.2151C26.9366 44.9485 26.7046 45.8908 26.9197 46.7512C27.35 49.0496 30.2689 49.0824 32.2303 48.6891C34.3689 48.2589 36.0013 47.3125 37.5409 46.3456C38.3212 45.8539 39.5107 44.9116 40.2447 44.3298C40.4387 44.1742 40.5357 44.0431 40.7424 43.8833L42.6743 42.0437C43.6993 40.8843 44.3193 40.2042 45.2515 38.9382C45.6143 38.2499 45.956 37.9139 46.4832 36.8118C46.8629 36.0129 47.1961 35.3164 47.5167 34.4601C47.8879 33.4646 49.0394 30.2525 49.4907 29.6625C49.4612 30.8548 48.5754 32.9811 48.6218 35.4434C48.6387 36.312 48.8116 37.496 49.1955 38.1515C49.6341 38.9013 50.5199 39.3069 51.3889 38.6473C53.1183 37.3362 51.8571 32.4854 51.2876 30.4737C51.0809 29.7404 50.5579 28.5235 50.482 27.868C50.7772 27.487 51.3762 26.7987 51.8529 26.516C52.996 25.6638 53.5359 24.066 53.9956 22.7508C54.4976 21.321 56.8175 14.0119 55.0586 13.3031C53.8438 12.8156 52.3464 15.536 51.9752 15.9457L51.8866 16.0317C51.663 12.9221 50.3175 10.4885 48.896 8.5055C45.9011 4.33883 40.637 0.807196 35.2884 0.794905C33.7066 0.790808 31.9139 0.905524 30.4418 1.29884C28.2695 1.88881 28.2822 2.12644 26.692 2.95403ZM14.6367 17.0724C14.8138 16.9863 15.2525 16.4496 15.4128 16.2325C16.3323 15.0157 15.7123 14.6838 16.1383 13.6473C16.2775 13.3113 16.6023 12.8115 16.6656 12.537C16.2311 12.7664 15.4718 13.7005 15.1513 14.3356C14.7548 15.114 14.527 16.0563 14.6367 17.0724ZM10.3637 18.6497C11.5321 18.7071 12.7765 18.1745 13.734 17.6746C14.2275 17.4206 14.2402 17.4001 14.3245 16.7323C14.4468 15.7859 14.3793 15.073 14.8138 14.2946C15.2061 13.594 15.6912 13.1843 16.0961 12.5738L14.0082 13.4424C11.7262 14.397 10.389 15.8719 10.3637 18.6497ZM16.7668 12.3936C16.7035 12.8934 16.7246 13.3113 16.6276 13.848C16.5559 14.2331 16.3661 14.8231 16.3365 15.1632C16.2437 16.2489 18.0702 18.3343 18.9011 19.0676C19.1922 19.3257 20.4028 20.35 20.6938 20.4934C20.8035 19.7805 20.8457 18.4039 20.833 17.6623C20.774 14.606 17.9563 14.4175 17.4712 11.9511C17.2012 12.0699 16.9988 12.2215 16.7668 12.3936ZM15.8557 36.7094C17.1042 35.0665 17.1253 33.1286 16.113 31.2726C15.9696 31.0104 15.8388 30.7851 15.6996 30.5352C15.5478 30.2689 15.3579 29.9329 15.1639 29.7854C14.6156 32.2436 13.6834 34.034 15.5435 36.3939L15.7165 36.5947C15.7291 36.607 15.746 36.6234 15.7587 36.6315L15.8557 36.7094ZM18.357 32.4362C18.6691 32.0839 19.0825 30.8507 19.1753 30.2607C19.4664 28.4416 18.6607 27.1428 17.505 25.9219C17.2392 25.6433 17.0831 25.3811 16.7837 25.123C16.2775 24.6887 16.2817 24.488 15.9021 24.3323C15.9021 26.1759 15.3031 27.528 16.1847 29.134C16.3619 29.4577 16.5306 29.683 16.7794 29.9165C18.3444 31.416 17.893 31.8708 18.357 32.4362ZM19.5043 26.4054C19.8376 24.9141 20.137 23.6932 19.4368 22.2592C18.9771 21.321 17.8466 20.2762 16.809 19.8788C16.4715 21.8085 15.5984 22.1117 17.5007 24.4265C17.8213 24.8116 19.053 26.2415 19.5043 26.4054ZM20.7908 36.103C21.5754 36.4636 27.1053 36.988 28.1177 36.8692C28.2948 35.9596 28.4171 34.6937 27.9447 33.9316C27.506 33.2187 26.1478 33.0344 25.165 33.3457C24.0514 33.6981 22.8872 34.7715 21.9339 35.4311C21.6387 35.636 20.9933 35.9146 20.7908 36.103ZM50.2837 27.3559C50.8026 26.979 50.9924 26.4464 50.7899 25.5983C50.2373 25.5286 50.077 25.713 50.0602 26.2374C50.0475 26.5857 50.1066 27.1551 50.2837 27.3559ZM50.1403 28.2613C50.0222 28.5317 49.689 30.4983 49.5835 30.9859C49.3811 31.9077 49.1575 32.85 49.0394 33.8128C48.8918 35.0173 48.799 39.0939 50.676 38.6883C53.5232 38.0778 50.6212 28.8554 50.1403 28.2613ZM30.4798 37.1191L30.4671 37.1232L30.4503 37.1273L30.4334 37.1314L30.4165 37.1355L30.3997 37.1396L30.3786 37.1437L30.3575 37.1478L30.3364 37.1519L30.3153 37.156L30.2942 37.1601L30.2689 37.1642L30.2436 37.1683L30.2183 37.1724L30.193 37.1765L30.1677 37.1805L30.1423 37.1846L30.1128 37.1887L30.0833 37.1928L30.0538 37.1969L30.0242 37.201L29.9947 37.2051L29.9652 37.2092L29.9357 37.2133L29.9061 37.2174L29.8766 37.2215L29.8471 37.2256L29.8133 37.2297L29.7796 37.2338L29.7458 37.2379L29.7121 37.242L29.6784 37.2461H29.6446H29.6109H29.5771H29.5434H29.5096H29.4759H29.4421H29.4084H29.3747H29.3409H29.3114H29.2819H29.2523H29.2228H29.1933H29.1638H29.1342H29.1047H29.0752H29.0456H29.0203H28.995H28.9697H28.9444H28.9191H28.8938H28.8727H28.8516H28.8305H28.8094H28.7926H28.7757L28.7588 37.242L28.7208 40.3557L28.7588 37.242L30.4798 37.1191ZM28.8769 40.3885C30.6148 40.5278 32.6437 39.4052 33.8079 38.467C34.2255 38.1311 35.6259 36.9429 35.8663 36.5906L35.9717 36.4062C34.1411 36.7708 32.4075 37.0576 30.4714 37.1191L28.4467 37.1396L28.008 37.7664C27.8266 38.0041 27.6663 38.1474 27.4723 38.3154C25.7893 39.7412 23.115 38.3359 22.2967 38.1474C23.2458 39.4216 27.5145 40.9129 28.8769 40.3885ZM28.3792 33.8865C28.4382 34.3249 28.6027 34.6773 28.6407 35.2427C28.6787 35.8244 28.5859 36.2628 28.5184 36.8077C30.3237 36.9347 33.3903 36.6643 35.2631 36.2464L35.6638 36.0784C33.656 35.4024 32.5171 32.9729 30.4165 33.1286C29.788 33.1737 28.7209 33.5383 28.3792 33.8865Z" fill="white"></path> <path fill-rule="evenodd" clip-rule="evenodd" d="M26.692 2.95403C26.3081 3.26131 25.5615 3.73247 25.397 4.11349C25.0469 4.29786 24.1864 5.26885 23.9249 5.56384C22.9969 6.61677 22.0183 7.38291 20.7276 8.03434L18.8337 9.02992C18.6607 9.24706 18.4245 9.40275 18.2178 9.59531C17.9985 9.79606 17.8044 10.0173 17.5978 10.2754C17.3911 10.5294 16.6276 11.5824 16.4378 11.693C16.2184 12.2666 15.1681 12.7377 14.4004 13.0368C13.4303 13.4137 12.8397 13.6186 12.1185 14.1758C10.7012 15.2697 9.7268 17.6828 10.1402 18.9201C12.2408 18.9078 12.7469 18.3056 14.1516 17.8303C14.0166 19.8501 10.5282 20.309 10.8108 25.7048C11.1778 25.6433 11.9497 25.2336 12.2661 25.037L13.6032 24.0742C13.637 23.9922 13.5821 24.0701 13.7002 23.9267C13.7635 23.8529 13.8099 23.8079 13.8732 23.7382C14.0124 23.5866 14.0672 23.4678 14.2317 23.4555C14.4679 23.0704 14.7801 22.7385 15.0627 22.3248C15.2905 21.997 15.5267 21.4521 15.7798 21.2227C15.8726 21.7307 15.8641 21.9191 15.6195 22.292C15.0796 23.1032 14.4468 23.6768 13.7509 24.2831C12.3926 25.4672 11.5279 26.7086 11.4225 28.671C11.3381 30.1542 12.0552 32.9729 12.8482 33.8415C13 33.6202 12.9958 33.4523 13.0844 33.1941C13.2995 32.5591 14.7126 29.4618 14.9741 29.0971C14.9108 30.5843 14.1136 31.9364 14.16 33.6039C14.198 34.9968 15.185 36.566 15.8683 37.201L16.2269 36.734C19.015 32.2436 14.6577 30.2566 15.5014 28.417C15.6827 28.6383 15.94 29.3102 16.1889 29.6461C16.5095 30.0763 16.8132 30.2771 17.0958 30.6212C17.3615 30.9449 17.5851 31.3259 17.7833 31.8175L18.1798 32.85C18.2136 32.9156 18.2305 32.936 18.2642 32.9893C18.3401 33.0876 18.2937 33.0385 18.3865 33.1081C18.7535 32.2436 19.2259 31.5471 19.4579 30.4409C19.9008 28.3105 18.7704 26.8151 17.37 25.3524L15.5688 23.4637C15.5056 24.3446 15.7334 25.3524 15.455 26.221C15.2567 25.5942 15.32 25.0329 15.2905 24.3569C14.7126 25.1189 15.4339 26.8397 14.5312 29.2405L12.7765 33.0426C12.3209 32.5386 11.8907 30.8302 11.781 29.978C11.2622 25.8687 13.7846 25.0206 15.5857 22.8328L16.0244 22.2879C16.4926 24.3405 18.4878 25.586 19.6351 27.2248C19.749 27.024 20.0738 25.1189 20.1202 24.742C20.2341 23.8284 20.1075 22.9352 19.7363 22.1936C19.4115 21.5463 18.8758 20.9441 18.4034 20.5589C18.1545 20.3541 16.9313 19.5224 16.5517 19.4609C16.4842 20.0099 16.4251 20.9522 16.1003 21.3005C15.9738 20.8129 16.0539 20.2721 16.1299 19.7887C16.1678 19.5388 16.2691 18.8587 16.2269 18.6088C16.1805 18.3383 16.1088 18.3302 16.0371 18.2646C15.4971 19.7477 15.784 20.3295 15.4212 21.1612C14.9825 22.1609 14.1347 22.968 14.0672 23.2507C13.7762 23.3941 13.6538 23.6317 13.4092 23.8529C12.844 24.361 11.8907 25.0534 11.1525 25.3033C11.0724 24.4306 11.3339 22.9475 11.6081 22.1732C12.0594 20.8949 13.308 20.0468 13.9407 19.0758C14.5481 18.1458 13.9407 18.2605 15.282 16.8102C15.9063 16.1341 15.746 16.2202 16.0919 15.8187C16.733 16.7446 16.5685 16.8061 17.5767 18.0802L19.1838 19.6617C19.576 19.9813 20.6854 20.9195 21.0186 21.0834C21.1494 19.3544 21.4193 16.8347 20.5124 15.5114C19.3651 13.8439 18.1756 13.9545 17.8508 11.6807L17.2561 11.6602L16.906 11.82C17.197 11.103 18.9897 9.07498 19.7363 8.94388C19.9683 8.71445 20.2931 8.61612 20.6348 8.43175C21.4953 7.97289 22.3515 7.5345 23.0306 6.89947C23.9544 6.03909 24.7094 5.19101 25.5995 4.27737C25.8736 3.9619 26.5949 3.36784 26.9029 3.21625C27.5862 2.56892 29.4421 1.88062 30.5852 1.58563C35.1703 0.397494 40.1013 1.3521 43.6529 3.88816L45.8885 5.64578L47.2087 7.00599C47.8541 7.78442 48.3603 8.23509 49.0183 9.24706C50.5452 11.5824 51.6419 13.9504 51.5745 17.3592L51.7179 17.2076C51.7347 17.183 51.8022 17.0765 51.8149 17.0601C51.8613 16.9822 51.9077 16.8634 51.9541 16.7733L52.9538 15.1017C53.2448 14.6879 54.2783 13.3605 54.9995 13.6227C56.5307 14.4339 53.2364 25.7007 51.7516 26.1309C51.5618 26.3767 51.5407 26.3972 51.2201 26.557C51.1991 25.9055 51.2497 25.0739 50.3807 25.2459C49.7354 25.3729 49.6679 26.1309 49.8071 26.7823C50.0138 27.7533 50.0222 27.7246 49.6088 28.499C49.3557 28.9701 49.0942 29.5191 48.8875 30.0231C48.4699 31.0473 48.0439 32.1166 47.6643 33.1941L46.3061 36.2587C46.0952 37.1478 45.3233 38.2581 44.8677 38.9054C44.1886 39.8723 43.7541 40.3557 43.016 41.1792C42.8388 41.3759 42.746 41.548 42.5478 41.7241L40.4471 43.7563C40.0085 44.2151 38.085 45.6368 37.5367 46.0014C37.098 46.2923 36.7268 46.5381 36.229 46.8045C35.2842 47.3166 34.4828 47.7181 33.3565 48.0909C31.0028 48.8694 27.9616 49.0701 27.2276 46.7758C26.9577 46.1612 27.2614 45.0632 27.5018 44.5429C27.679 44.1619 27.8055 44.0062 28.0375 43.6989L28.7166 42.986C29.071 42.7894 29.3915 42.5231 29.7712 42.31C31.5048 41.3308 34.0314 40.2451 35.2631 38.7169C36.3092 37.4223 36.0308 37.2871 36.4442 36.2956L37.4607 35.9228C36.2417 35.7794 36.0308 36.0457 34.9847 35.3861C34.4068 35.0214 33.8121 34.5052 33.3354 34.0586C31.4542 32.3051 30.3279 32.8705 28.8558 33.1778L28.6787 31.965L28.299 31.4365C26.8986 29.1832 25.7007 30.5762 24.2834 29.2569C24.3509 28.8964 24.7432 28.6997 25.0385 28.4949C25.3886 28.2531 25.8272 28.1097 26.2912 28.3187C27.1981 28.7284 27.3753 29.1996 28.6871 29.0111C29.2987 28.7653 29.7712 28.1507 30.581 28.1425C32.0489 28.1302 31.9266 29.1504 32.1502 29.3798C32.4665 28.9087 32.7196 28.6342 32.6943 27.7984C32.6732 26.8929 31.6018 24.2135 31.2644 22.9885C31.0113 22.0707 30.716 20.141 31.1336 19.2602C32.4032 16.5725 36.8491 20.1369 41.7252 18.4695C43.9608 17.7033 44.3109 16.7856 45.163 15.5237C45.3233 15.2861 45.4161 15.1058 45.6185 14.8968C45.7535 14.7535 45.956 14.5855 46.1036 14.3806C42.6701 14.5199 39.7132 11.0866 35.0564 14.2782C33.9428 15.0402 33.3186 16.5561 33.0824 16.8143C32.8841 16.7077 32.8166 16.5643 32.6901 16.3841C32.5973 16.2571 32.5003 16.1055 32.4243 15.9293C32.2598 15.5606 32.1755 15.1304 32.243 14.6797C32.3737 13.807 32.9347 13.1638 33.3987 12.8074C34.4575 12.0003 36.3176 11.4963 37.8404 11.1153C41.991 10.0747 42.9105 9.68544 46.5634 11.3406C46.8375 11.4635 47.2931 11.7258 47.542 11.7626C47.0063 10.5007 46.285 9.75919 45.028 9.11595C42.552 7.84588 38.7979 8.80458 36.1953 9.5994C35.0986 9.93536 34.3436 10.1812 33.3228 10.6646C32.8293 10.8982 32.5973 10.9473 32.6732 11.2136C32.8166 11.2833 32.6015 11.3365 32.9347 11.2218C32.9389 11.2218 33.095 11.1235 33.1203 11.1112C33.8754 10.6728 35.2294 10.2058 36.0477 9.95175C38.0639 9.329 42.1386 8.26787 44.1338 9.0545C45.4118 9.55843 46.188 10.1771 46.7996 11.0416C46.5254 11.0129 45.5595 10.5376 45.1672 10.4024C42.8936 9.61989 41.6662 9.86981 39.1648 10.4762C37.0305 10.9924 33.8543 11.652 32.572 13.1515C31.7832 14.0734 31.6271 15.5073 32.4117 16.5807C32.5804 16.8143 32.7576 16.9577 32.9727 17.1748C33.9471 18.1499 38.3086 18.6374 39.8102 18.4449C41.6577 18.2031 42.2567 17.5927 43.2733 17.2731C42.843 17.818 41.5438 18.2523 40.9153 18.3875C39.8313 18.621 38.8654 18.6579 37.7476 18.5924C36.769 18.535 35.7144 18.3629 34.7612 18.1499C32.863 17.7279 30.7835 17.5886 30.6106 20.2148C30.4081 23.2671 32.4834 26.1678 32.34 28.5399C32.0658 28.4498 32.1417 28.4375 31.9224 28.2654C31.8043 28.1712 31.6862 28.1056 31.5006 28.0319C29.8555 27.3928 29.0203 28.6055 28.5437 28.6669C28.046 29.2036 26.519 28.0155 26.0002 27.9664C25.4982 27.9172 25.0047 28.1466 24.701 28.3638C24.3256 28.6342 23.9291 28.9128 24.102 29.429C24.4353 29.6584 24.4057 29.9288 25.5193 30.1378C26.7805 30.3754 27.4343 30.3221 28.2569 31.8995C28.6702 32.6902 28.5648 32.9074 28.3328 33.6817C27.9447 33.5424 27.7465 33.2679 27.2487 33.0958C25.7766 32.5796 24.5829 33.1778 23.5073 33.9275C22.6974 34.4929 21.6134 35.4844 20.5715 35.7917C20.1075 35.9269 19.8924 35.9064 19.4959 35.9678L19.15 36.0744L20.6474 36.357C22.5118 36.8118 25.996 37.1273 28.0249 37.1273C27.5651 38.635 25.6543 38.8357 24.14 38.4629C23.1277 38.213 22.1027 37.7336 21.3476 37.1109L20.7149 36.6397C20.4492 36.5824 20.6348 36.5291 20.4914 36.7176C20.5884 36.7749 21.4489 37.8647 22.0014 38.3318C23.8827 39.9215 26.7426 40.9498 29.3662 40.6302C31.3867 40.5196 33.1119 39.5322 34.4743 38.2826C34.6979 38.0778 34.9383 37.9303 35.1534 37.7255C35.3981 37.4919 35.3643 37.3895 35.8157 37.1519C35.5795 38.0532 34.4912 39.1225 33.753 39.6552L32.7913 40.2984C32.2472 40.6425 31.4584 41.0686 30.813 41.3759C30.3364 41.6053 29.0541 42.4083 28.7757 42.4575C28.6787 42.6788 28.1852 43.068 27.9869 43.281C27.7338 43.5596 27.5313 43.8546 27.3331 44.2151C26.9366 44.9485 26.7046 45.8908 26.9197 46.7512C27.35 49.0496 30.2689 49.0824 32.2303 48.6891C34.3689 48.2589 36.0013 47.3125 37.5409 46.3456C38.3212 45.8539 39.5107 44.9116 40.2447 44.3298C40.4387 44.1742 40.5357 44.0431 40.7424 43.8833L42.6743 42.0437C43.6993 40.8843 44.3193 40.2042 45.2515 38.9382C45.6143 38.2499 45.956 37.9139 46.4832 36.8118C46.8629 36.0129 47.1961 35.3164 47.5167 34.4601C47.8879 33.4646 49.0394 30.2525 49.4907 29.6625C49.4612 30.8548 48.5754 32.9811 48.6218 35.4434C48.6387 36.312 48.8116 37.496 49.1955 38.1515C49.6341 38.9013 50.5199 39.3069 51.3889 38.6473C53.1183 37.3362 51.8571 32.4854 51.2876 30.4737C51.0809 29.7404 50.5579 28.5235 50.482 27.868C50.7772 27.487 51.3762 26.7987 51.8529 26.516C52.996 25.6638 53.5359 24.066 53.9956 22.7508C54.4976 21.321 56.8175 14.0119 55.0586 13.3031C53.8438 12.8156 52.3464 15.536 51.9752 15.9457L51.8866 16.0317C51.663 12.9221 50.3175 10.4885 48.896 8.5055C45.9011 4.33883 40.637 0.807196 35.2884 0.794905C33.7066 0.790808 31.9139 0.905524 30.4418 1.29884C28.2695 1.88881 28.2822 2.12644 26.692 2.95403ZM14.6367 17.0724C14.8138 16.9863 15.2525 16.4496 15.4128 16.2325C16.3323 15.0157 15.7123 14.6838 16.1383 13.6473C16.2775 13.3113 16.6023 12.8115 16.6656 12.537C16.2311 12.7664 15.4718 13.7005 15.1513 14.3356C14.7548 15.114 14.527 16.0563 14.6367 17.0724ZM10.3637 18.6497C11.5321 18.7071 12.7765 18.1745 13.734 17.6746C14.2275 17.4206 14.2402 17.4001 14.3245 16.7323C14.4468 15.7859 14.3793 15.073 14.8138 14.2946C15.2061 13.594 15.6912 13.1843 16.0961 12.5738L14.0082 13.4424C11.7262 14.397 10.389 15.8719 10.3637 18.6497ZM16.7668 12.3936C16.7035 12.8934 16.7246 13.3113 16.6276 13.848C16.5559 14.2331 16.3661 14.8231 16.3365 15.1632C16.2437 16.2489 18.0702 18.3343 18.9011 19.0676C19.1922 19.3257 20.4028 20.35 20.6938 20.4934C20.8035 19.7805 20.8457 18.4039 20.833 17.6623C20.774 14.606 17.9563 14.4175 17.4712 11.9511C17.2012 12.0699 16.9988 12.2215 16.7668 12.3936ZM15.8557 36.7094C17.1042 35.0665 17.1253 33.1286 16.113 31.2726C15.9696 31.0104 15.8388 30.7851 15.6996 30.5352C15.5478 30.2689 15.3579 29.9329 15.1639 29.7854C14.6156 32.2436 13.6834 34.034 15.5435 36.3939L15.7165 36.5947C15.7291 36.607 15.746 36.6234 15.7587 36.6315L15.8557 36.7094ZM18.357 32.4362C18.6691 32.0839 19.0825 30.8507 19.1753 30.2607C19.4664 28.4416 18.6607 27.1428 17.505 25.9219C17.2392 25.6433 17.0831 25.3811 16.7837 25.123C16.2775 24.6887 16.2817 24.488 15.9021 24.3323C15.9021 26.1759 15.3031 27.528 16.1847 29.134C16.3619 29.4577 16.5306 29.683 16.7794 29.9165C18.3444 31.416 17.893 31.8708 18.357 32.4362ZM19.5043 26.4054C19.8376 24.9141 20.137 23.6932 19.4368 22.2592C18.9771 21.321 17.8466 20.2762 16.809 19.8788C16.4715 21.8085 15.5984 22.1117 17.5007 24.4265C17.8213 24.8116 19.053 26.2415 19.5043 26.4054ZM20.7908 36.103C21.5754 36.4636 27.1053 36.988 28.1177 36.8692C28.2948 35.9596 28.4171 34.6937 27.9447 33.9316C27.506 33.2187 26.1478 33.0344 25.165 33.3457C24.0514 33.6981 22.8872 34.7715 21.9339 35.4311C21.6387 35.636 20.9933 35.9146 20.7908 36.103ZM50.2837 27.3559C50.8026 26.979 50.9924 26.4464 50.7899 25.5983C50.2373 25.5286 50.077 25.713 50.0602 26.2374C50.0475 26.5857 50.1066 27.1551 50.2837 27.3559ZM50.1403 28.2613C50.0222 28.5317 49.689 30.4983 49.5835 30.9859C49.3811 31.9077 49.1575 32.85 49.0394 33.8128C48.8918 35.0173 48.799 39.0939 50.676 38.6883C53.5232 38.0778 50.6212 28.8554 50.1403 28.2613ZM30.4798 37.1191L30.4671 37.1232L30.4503 37.1273L30.4334 37.1314L30.4165 37.1355L30.3997 37.1396L30.3786 37.1437L30.3575 37.1478L30.3364 37.1519L30.3153 37.156L30.2942 37.1601L30.2689 37.1642L30.2436 37.1683L30.2183 37.1724L30.193 37.1765L30.1677 37.1805L30.1423 37.1846L30.1128 37.1887L30.0833 37.1928L30.0538 37.1969L30.0242 37.201L29.9947 37.2051L29.9652 37.2092L29.9357 37.2133L29.9061 37.2174L29.8766 37.2215L29.8471 37.2256L29.8133 37.2297L29.7796 37.2338L29.7458 37.2379L29.7121 37.242L29.6784 37.2461H29.6446H29.6109H29.5771H29.5434H29.5096H29.4759H29.4421H29.4084H29.3747H29.3409H29.3114H29.2819H29.2523H29.2228H29.1933H29.1638H29.1342H29.1047H29.0752H29.0456H29.0203H28.995H28.9697H28.9444H28.9191H28.8938H28.8727H28.8516H28.8305H28.8094H28.7926H28.7757L28.7588 37.242L28.7208 40.3557L28.7588 37.242L30.4798 37.1191ZM28.8769 40.3885C30.6148 40.5278 32.6437 39.4052 33.8079 38.467C34.2255 38.1311 35.6259 36.9429 35.8663 36.5906L35.9717 36.4062C34.1411 36.7708 32.4075 37.0576 30.4714 37.1191L28.4467 37.1396L28.008 37.7664C27.8266 38.0041 27.6663 38.1474 27.4723 38.3154C25.7893 39.7412 23.115 38.3359 22.2967 38.1474C23.2458 39.4216 27.5145 40.9129 28.8769 40.3885ZM28.3792 33.8865C28.4382 34.3249 28.6027 34.6773 28.6407 35.2427C28.6787 35.8244 28.5859 36.2628 28.5184 36.8077C30.3237 36.9347 33.3903 36.6643 35.2631 36.2464L35.6638 36.0784C33.656 35.4024 32.5171 32.9729 30.4165 33.1286C29.788 33.1737 28.7209 33.5383 28.3792 33.8865Z" stroke="white" stroke-width="0.6" mask="url(#path-4-outside-1)"></path> <path d="M67.7803 39.8845C67.7803 40.413 68.3244 40.8104 68.8263 40.8104C69.0077 40.8104 69.1005 40.7653 69.2355 40.7203C73.1625 39.6591 73.8459 35.0664 74.1158 29.3223C75.9296 29.1912 77.6126 28.2612 79.1944 27.0239C79.4686 27.3763 79.7385 27.8187 80.0591 28.2161L80.7425 29.3223C84.4248 34.8902 89.6131 43.8586 95.6618 43.8586C96.7079 43.8586 98.1168 43.7684 98.1168 42.4451C98.1168 41.9166 97.7076 41.8265 97.2984 41.8265C96.9821 41.8265 96.5265 41.9576 95.7082 41.9576C90.752 41.9576 85.8379 33.4726 82.4719 28.2612C82.1555 27.7327 81.0166 26.2291 80.6075 25.7866C82.6532 23.7996 84.6104 21.325 86.1585 19.2478C87.1118 17.9654 88.1578 16.9002 88.7948 16.2283C89.6595 15.331 90.7984 14.5649 91.3425 14.5649C91.8866 14.5649 92.3422 14.2125 92.3422 13.639C92.3422 13.1104 91.8866 12.713 91.3425 12.713C89.9337 12.713 88.2928 13.8192 87.3395 14.8353C86.6098 15.6465 85.7493 16.597 84.564 18.1047C83.0624 20.0057 81.2908 22.6114 79.2872 24.4674C77.6506 23.0539 76.0562 22.1239 74.1454 21.9477C74.1454 20.8415 74.1918 19.4731 74.2803 18.412C78.4183 17.3058 80.966 14.8763 80.966 12.3607C80.966 10.771 79.9199 9.3125 77.9627 9.3125C75.5964 9.3125 73.1415 11.3446 72.4581 16.9985C71.547 17.1747 70.5937 17.2648 69.5476 17.2648C66.2744 17.2648 64.0894 15.499 63.9545 12.8892C63.9081 12.3607 63.4989 12.0042 62.9548 12.0042C62.4106 12.0042 61.9551 12.4017 61.9551 12.9752C61.9551 15.2737 63.9123 19.0265 69.5519 19.0265C70.5051 19.0265 71.4163 18.9815 72.281 18.8504C72.2346 19.7763 72.1882 20.8374 72.146 22.0747C70.1466 22.5623 68.4636 23.9757 68.4636 25.6555C68.4636 27.0239 69.1933 28.7037 72.1122 29.1912C71.8381 35.7301 70.7835 38.1596 68.4636 39.0896C68.0544 39.2207 67.7803 39.4871 67.7803 39.8845ZM70.463 25.6555C70.463 24.9918 71.1927 24.197 72.108 23.9757C72.108 24.4633 72.0616 26.9379 72.0616 27.3763C71.0577 27.2042 70.463 26.6716 70.463 25.6555ZM74.1664 23.7545C75.4403 23.8856 76.8871 24.5944 77.9796 25.7416C76.7985 26.7125 75.3053 27.4664 74.0736 27.5074C74.0736 26.8436 74.12 25.9177 74.12 25.254L74.1664 23.7545ZM77.9332 11.0742C78.6545 11.0742 78.9708 11.6478 78.9708 12.3566C78.9708 13.8151 77.1571 15.5359 74.4828 16.4659C75.0733 13.0654 76.4316 11.0742 77.9332 11.0742ZM102.352 23.8446C99.4412 23.8446 97.8932 26.0529 97.8932 28.1752C97.8932 30.2073 99.2599 31.8871 101.896 31.8871C103.035 31.8871 103.124 31.1783 103.124 30.9161C103.124 30.3876 102.668 29.9451 102.078 29.9451C101.306 29.9451 99.939 29.9451 99.939 28.1793C99.939 27.1181 100.53 25.7047 102.259 25.7047C104.444 25.7047 105.169 28.0891 105.169 29.8591C105.169 33.616 103.077 37.8114 99.7998 37.8114C97.4798 37.8114 96.5265 35.1155 96.5265 32.8171C96.5265 31.8912 96.6615 30.6539 96.9357 29.9902C96.9821 29.8591 97.0285 29.7239 97.0285 29.5477C97.0285 29.0601 96.6193 28.5767 96.0752 28.5767C95.666 28.5767 95.2569 28.884 95.1219 29.2855C94.6664 30.4777 94.485 31.629 94.485 32.8622C94.485 36.9715 96.5772 39.6673 99.7154 39.6673C104.355 39.6673 107.219 34.587 107.219 29.8591C107.219 26.3192 105.355 23.8446 102.352 23.8446ZM110.632 39.6182C111.134 39.6182 111.497 39.3109 111.585 38.8233C113.087 31.1783 115.769 26.0529 118.136 26.0529C120.093 26.0529 120.139 29.3674 120.139 30.3384C120.139 32.0633 119.865 33.9192 119.549 35.8612C119.367 36.7871 119.14 38.1146 119.14 38.2907C119.14 38.8192 119.549 39.3068 120.139 39.3068C120.958 39.3068 121.004 38.9544 121.506 35.9472C122.371 30.7768 124.737 26.0079 127.285 26.0079C128.833 26.0079 129.284 28.3063 129.284 30.7358C129.284 33.6078 128.512 36.9223 128.057 38.4218C128.01 38.512 128.01 38.598 128.01 38.6881C128.01 39.2167 128.466 39.7042 129.056 39.7042C129.512 39.7042 129.875 39.3969 130.056 38.9954C130.465 37.4058 131.284 33.825 131.284 30.6457C131.284 25.8727 129.554 24.0618 127.508 24.0167C125.053 24.0167 123.231 25.7825 122.05 29.1871C121.869 25.2089 119.958 24.1068 118.364 24.1068C116.546 24.1068 114.723 25.213 113.315 28.5234C113.677 25.6965 112.585 23.7955 111.632 23.7955C111.041 23.7955 110.585 24.2379 110.585 24.7665C110.585 25.0328 110.678 25.254 110.813 25.4752C111.497 26.139 111.497 27.6835 111.497 28.1711C111.497 30.5146 110.813 33.5177 110.269 35.7711C109.995 36.9633 109.679 38.1555 109.679 38.598C109.674 39.1757 110.041 39.6182 110.632 39.6182ZM138.104 24.5534C137.56 24.4223 136.965 24.7296 136.877 25.2622C135.51 30.5187 134.831 38.2088 134.831 38.7824C134.831 39.356 135.287 39.7984 135.877 39.7984C136.421 39.7984 136.83 39.401 136.877 38.8725C137.151 34.6772 138.016 28.9331 138.834 25.7497C138.88 25.6596 138.88 25.5736 138.88 25.5285C138.88 25.0819 138.56 24.6845 138.104 24.5534ZM146.612 11.8731C146.249 12.0042 145.975 12.3607 145.975 12.7991C145.975 12.8892 146.022 13.0203 146.068 13.1514C146.203 13.3726 146.249 13.9462 146.249 14.8312C146.249 16.6421 145.612 18.8954 144.613 22.9146C143.748 26.3151 142.386 32.6778 142.386 36.2135C142.386 37.4508 142.478 39.3928 143.752 39.3928C144.296 39.3928 144.752 38.9954 144.752 38.4218C144.752 38.2457 144.706 38.1146 144.617 37.9793C144.571 37.8482 144.436 37.4508 144.436 36.2135C144.436 32.6778 145.844 26.3151 146.848 22.341C147.485 19.7804 148.257 16.9084 148.257 14.8312C148.257 13.4177 148.257 11.783 147.03 11.783C146.886 11.783 146.705 11.8281 146.612 11.8731ZM149.658 48.099C148.746 48.099 148.021 46.7716 148.021 44.6985C148.021 40.3228 149.797 32.6368 154.66 28.3964C154.344 33.0793 153.977 38.2948 152.977 42.5803C152.117 46.2881 151.298 48.099 149.658 48.099ZM166.036 14.655C166.036 12.713 164.855 11.2094 162.308 11.2094C159.806 11.2094 157.803 12.9343 156.714 15.4498C155.487 18.3218 155.213 20.2229 154.804 26.0079C148.388 30.2483 145.979 39.4379 145.979 44.6985C145.979 48.2342 147.616 50 149.527 50C152.484 50 153.804 47.4803 154.896 43.285C155.943 39.2208 156.398 33.698 156.854 27.1141C158.262 26.4053 159.811 26.3192 160.629 26.3192C160.857 26.3192 161.312 26.3643 161.721 26.3643C162.177 26.3643 162.632 26.057 162.632 25.5244C162.632 24.7296 162.042 24.4633 160.768 24.4633C159.131 24.4633 158.039 24.6845 156.9 25.127C157.174 21.6363 157.444 18.457 158.583 16.1136C159.536 14.1265 160.629 13.0203 162.084 13.0203C163.358 13.0203 163.995 13.8602 163.995 14.6099C163.995 15.2737 163.767 15.6711 163.586 15.8022C163.13 16.1095 163.042 16.6871 163.042 16.9493C163.042 17.2566 163.358 17.6581 163.995 17.6581C164.716 17.6581 166.036 16.4208 166.036 14.655ZM170.128 23.8446C167.218 23.8446 165.669 26.0529 165.669 28.1752C165.669 30.2073 167.036 31.8871 169.672 31.8871C170.811 31.8871 170.9 31.1783 170.9 30.9161C170.9 30.3876 170.444 29.9451 169.854 29.9451C169.082 29.9451 167.715 29.9451 167.715 28.1793C167.715 27.1181 168.306 25.7047 170.035 25.7047C172.22 25.7047 172.946 28.0891 172.946 29.8591C172.946 33.616 170.853 37.8114 167.58 37.8114C165.26 37.8114 164.307 35.1155 164.307 32.8171C164.307 31.8912 164.442 30.6539 164.716 29.9902C164.763 29.8591 164.809 29.7239 164.809 29.5477C164.809 29.0601 164.4 28.5767 163.856 28.5767C163.447 28.5767 163.037 28.884 162.902 29.2855C162.447 30.4777 162.265 31.629 162.265 32.8622C162.265 36.9715 164.358 39.6673 167.496 39.6673C172.136 39.6673 175 34.587 175 29.8591C174.996 26.3192 173.131 23.8446 170.128 23.8446Z" fill="white"></path> <path fill-rule="evenodd" clip-rule="evenodd" d="M139.079 22.9393C139.045 22.9557 138.982 23.0294 138.94 23.0499C138.8 23.1195 138.783 23.1236 138.64 23.1441C138.615 23.1482 138.585 23.1523 138.564 23.1564C138.535 23.1564 138.514 23.1523 138.48 23.1482L138.332 23.14C138.277 23.1318 138.214 23.1073 138.159 23.0868C137.303 22.7508 136.928 21.4316 136.944 20.6777C136.949 20.649 136.957 20.6245 136.961 20.5999C136.965 20.5548 136.957 20.5671 136.974 20.5179C137.008 20.4237 137.012 20.2926 137.062 20.2025C137.092 20.1492 137.117 20.0919 137.138 20.0386C137.181 19.9116 137.4 19.6412 137.489 19.5429C137.851 19.1577 138.206 19.0963 138.703 19.2028C138.779 19.2192 138.965 19.2888 139.041 19.3257C139.096 19.3544 139.146 19.3667 139.205 19.4077C139.323 19.4896 139.433 19.5633 139.505 19.674C139.564 19.76 139.631 19.8255 139.652 19.9607C139.661 20.014 139.678 20.0591 139.682 20.1123C139.682 20.1533 139.682 20.1492 139.686 20.1861C139.695 20.2516 139.669 20.3664 139.657 20.4278C139.644 20.4729 139.657 20.4606 139.644 20.5016C139.606 20.6245 139.496 20.8006 139.437 20.9072C139.408 20.9604 139.366 21.0178 139.332 21.0751C139.26 21.198 139.209 21.2267 139.155 21.4029C139.146 21.4275 139.138 21.4521 139.129 21.4807L139.108 21.6405C139.108 21.6692 139.1 21.6938 139.1 21.7225L139.112 21.87C139.121 21.8986 139.121 21.915 139.125 21.9437C139.129 21.9724 139.142 21.9888 139.155 22.0215C139.176 22.083 139.205 22.1772 139.235 22.2428L139.273 22.3575C139.277 22.3903 139.264 22.3575 139.281 22.4312L139.285 22.5419C139.29 22.6197 139.256 22.7098 139.222 22.7836L139.117 22.927C139.079 22.9393 139.1 22.927 139.079 22.9393Z" fill="#FB5C18"></path> <path fill-rule="evenodd" clip-rule="evenodd" d="M33.8755 17.3754C36.9716 18.3751 39.9833 18.7929 42.9106 17.0763C43.2987 16.8469 43.6783 16.5928 43.9905 16.3347C44.1929 16.1709 44.8214 15.5604 44.9353 15.3801C42.1978 16.2282 42.24 16.0889 39.1776 16.1381C38.1822 16.1545 37.174 16.2077 36.225 16.4372C35.5922 16.5887 34.2087 17.0148 33.8755 17.3754Z" fill="#272932"></path> <path fill-rule="evenodd" clip-rule="evenodd" d="M138.083 17.1583C139.901 17.1583 141.378 18.5882 141.378 20.3581C141.378 22.1239 139.906 23.5579 138.083 23.5579C136.265 23.5579 134.789 22.128 134.789 20.3581C134.793 18.5882 136.265 17.1583 138.083 17.1583Z" fill="#FB5C18"></path> <path fill-rule="evenodd" clip-rule="evenodd" d="M33.3101 17.2525C34.2507 16.8878 34.1326 16.6748 35.8536 16.2282C36.8617 15.966 37.9626 15.8472 39.0256 15.8308C40.5947 15.8062 42.5266 15.8964 44.0324 15.3801C44.391 15.2572 44.9857 15.0401 45.2346 14.7328C44.8339 14.5689 44.0367 14.4952 43.501 14.3067C41.6619 13.6717 40.1771 12.926 38.0934 13.3316C36.2669 13.6881 35.0015 14.4583 34.0609 15.839C33.774 16.2651 33.445 16.7363 33.3101 17.2525Z" fill="#FB5C18"></path> </svg> 